<svg width="34" height="34" viewBox="0 0 34 34" fill="none" xmlns="http://www.w3.org/2000/svg">
<g id="icon/file/download_24px">
<path id="icon/file/download_24px_2" fill-rule="evenodd" clip-rule="evenodd" d="M21.25 13.4584H23.5025C24.7634 13.4584 25.3867 14.9884 24.4942 15.8809L17.9917 22.3834C17.4392 22.9359 16.5467 22.9359 15.9942 22.3834L9.49171 15.8809C8.59921 14.9884 9.23671 13.4584 10.4975 13.4584H12.75V6.37504C12.75 5.59587 13.3875 4.95837 14.1667 4.95837H19.8334C20.6125 4.95837 21.25 5.59587 21.25 6.37504V13.4584ZM8.50004 29.0417C7.72087 29.0417 7.08337 28.4042 7.08337 27.6251C7.08337 26.8459 7.72087 26.2084 8.50004 26.2084H25.5C26.2792 26.2084 26.9167 26.8459 26.9167 27.6251C26.9167 28.4042 26.2792 29.0417 25.5 29.0417H8.50004Z" fill="white"/>
</g>
</svg>
