<svg width="26" height="26" viewBox="0 0 26 26" fill="none" xmlns="http://www.w3.org/2000/svg">
<path fill-rule="evenodd" clip-rule="evenodd" d="M4.48939 13.0018C4.48939 7.53099 9.00689 3.10016 14.5211 3.25183C19.6019 3.39266 23.8486 7.63933 23.9894 12.7202C24.1411 18.2343 19.7102 22.7518 14.2394 22.7518C11.9752 22.7518 9.90606 21.9827 8.25939 20.6827C7.75023 20.2927 7.71773 19.5235 8.17273 19.0685C8.56273 18.6785 9.16939 18.646 9.60273 18.9818C10.8811 19.9893 12.4952 20.5852 14.2394 20.5852C18.4644 20.5852 21.8769 17.1293 21.8227 12.8935C21.7686 8.86349 18.3777 5.47266 14.3477 5.41849C10.1011 5.36433 6.65606 8.77683 6.65606 13.0018H8.59523C9.08273 13.0018 9.32106 13.5868 8.98523 13.9227L5.96273 16.956C5.74606 17.1727 5.41023 17.1727 5.19356 16.956L2.17106 13.9227C1.82439 13.5868 2.06273 13.0018 2.55023 13.0018H4.48939ZM13.1561 9.48099C13.1561 9.03683 13.5244 8.66849 13.9686 8.66849C14.4127 8.66849 14.7811 9.03683 14.7811 9.47016V13.1535L17.9011 15.006C18.2802 15.2335 18.4102 15.7318 18.1827 16.1218C17.9552 16.501 17.4569 16.631 17.0669 16.4035L13.6869 14.3993C13.3619 14.2043 13.1561 13.8468 13.1561 13.4677V9.48099Z" fill="white"/>
</svg>
